Coordinates
version=1
nRows=24
nColumns=24
inDegrees=yes

Units are S.I. units (second, meters, Newtons, ...)
Angles are in degrees.

endheader
time	pelvis_tilt	pelvis_list	pelvis_rotation	pelvis_tx	pelvis_ty	pelvis_tz	hip_flexion_r	hip_adduction_r	hip_rotation_r	knee_angle_r	ankle_angle_r	subtalar_angle_r	mtp_angle_r	hip_flexion_l	hip_adduction_l	hip_rotation_l	knee_angle_l	ankle_angle_l	subtalar_angle_l	mtp_angle_l	lumbar_extension	lumbar_bending	lumbar_rotation
      5.03000000	    -10.48739894	      4.60294198	     -1.05714946	     -0.82400389	     -0.01919619	     -0.74496696	     18.02810515	     -8.23361364	     -3.85695955	    -63.58159704	    -24.09960995	    -16.63493446	      5.20984685	     26.58427831	      6.22191065	    -14.17626284	    -22.69243818	      1.93887180	     -9.55555444	      6.59673210	      8.97494030	     -6.08339210	     -0.49748928
      5.03500000	    -10.62687512	      4.56318011	     -0.92938152	     -0.81840071	     -0.01844569	     -0.74580430	     19.09034062	     -8.16599852	     -3.74973641	    -64.47143923	    -23.14799775	    -16.62216923	      5.54414983	     26.16900386	      6.32729951	    -14.11612964	    -22.34662579	      2.14697207	     -9.42070260	      6.69029920	      9.07772828	     -6.03727968	     -0.75627694
      5.04000000	    -10.70485757	      4.49769401	     -0.80825748	     -0.81278462	     -0.01758914	     -0.74663783	     20.05736019	     -8.07238150	     -3.68626153	    -65.24067009	    -22.19489085	    -16.68527543	      5.85130307	     25.66165020	      6.42127305	    -13.95997440	    -21.96131385	      2.34659960	     -9.31605792	      6.74928433	      9.11798329	     -5.96149060	     -0.94614916
      5.04500000	    -10.77178128	      4.41505730	     -0.69197853	     -0.80720396	     -0.01669480	     -0.74744595	     20.99514929	     -7.94984368	     -3.62047763	    -65.91345467	    -21.18508401	    -16.69166170	      6.17148259	     25.13879334	      6.49532894	    -13.79458211	    -21.56412336	      2.50920296	     -9.23430887	      6.76894960	      9.14227108	     -5.86950512	     -1.13072579
      5.05000000	    -10.81943638	      4.33538517	     -0.57559202	     -0.80158506	     -0.01578327	     -0.74828089	     21.89393487	     -7.83899330	     -3.57739940	    -66.49530250	    -20.18802026	    -16.68913881	      6.47308859	     24.57321227	      6.58142300	    -13.60696385	    -21.13013112	      2.69026170	     -9.16378068	      6.76771976	      9.15575854	     -5.77267147	     -1.31621485
      5.05500000	    -10.86040299	      4.24895579	     -0.46325152	     -0.79599950	     -0.01485028	     -0.74908574	     22.76811788	     -7.71207269	     -3.53000184	    -66.98559635	    -19.16913765	    -16.64127905	      6.78002000	     23.99896227	      6.65661662	    -13.41510581	    -20.68793572	      2.82515206	     -9.11511002	      6.72084365	      9.15855007	     -5.67035944	     -1.49763701
      5.06000000	    -10.88473744	      4.16356715	     -0.34693819	     -0.79041030	     -0.01390179	     -0.74989197	     23.60318578	     -7.58787639	     -3.49655867	    -67.38430127	    -18.18240697	    -16.60329866	      7.07491541	     23.39550638	      6.73690569	    -13.21252480	    -20.22348133	      2.94491558	     -9.08596101	      6.63190655	      9.14493402	     -5.56813644	     -1.67078070
      5.06500000	    -10.88773203	      4.07967160	     -0.22941071	     -0.78480974	     -0.01292996	     -0.75068770	     24.39339775	     -7.46841479	     -3.48116476	    -67.69130322	    -17.24696344	    -16.58243961	      7.34801165	     22.75583844	      6.81966419	    -12.99677509	    -19.73605905	      3.05427696	     -9.05753613	      6.50960787	      9.11173010	     -5.46662177	     -1.84071611
      5.07000000	    -10.87791874	      3.97870049	     -0.12898684	     -0.77919348	     -0.01193841	     -0.75142585	     25.15277313	     -7.32147006	     -3.49455566	    -67.90073217	    -16.46711061	    -16.75164594	      7.51616181	     22.08862829	      6.87084727	    -12.77751384	    -19.23001568	      3.18482543	     -8.97139948	      6.45851320	      9.07318865	     -5.34750978	     -1.95294181
      5.07500000	    -10.83045298	      3.90955594	      0.01780289	     -0.77358225	     -0.01094864	     -0.75228876	     25.83500776	     -7.24003884	     -3.50343601	    -68.03569446	    -15.56555234	    -16.61781260	      7.77261145	     21.37676323	      6.98105590	    -12.57720967	    -18.70359543	      3.26900636	     -8.96968570	      6.26937267	      8.98429966	     -5.25955595	     -2.18377724
      5.08000000	    -10.76023694	      3.83757525	      0.15032781	     -0.76795176	     -0.00994997	     -0.75311380	     26.47639418	     -7.15612641	     -3.54451081	    -68.08047829	    -14.82113833	    -16.66967672	      7.96099556	     20.62405113	      7.07968121	    -12.35474400	    -18.15636733	      3.38337923	     -8.93052162	      6.07667334	      8.87847774	     -5.16483872	     -2.35800205
      5.08500000	    -10.67778872	      3.75344010	      0.28597386	     -0.76230727	     -0.00893635	     -0.75389668	     27.07354924	     -7.05441925	     -3.60110632	    -68.02790872	    -14.14343892	    -16.77739132	      8.10345714	     19.85451354	      7.15381947	    -12.15593513	    -17.60500810	      3.49002410	     -8.83980231	      5.90069909	      8.76280197	     -5.06071033	     -2.53286226
      5.09000000	    -10.66081434	      3.67057202	      0.39984694	     -0.75666962	     -0.00804092	     -0.75462617	     27.74085874	     -6.94124795	     -3.65001012	    -67.91267435	    -13.57066220	    -16.99361135	      8.17954069	     19.15925546	      7.20791643	    -11.99547811	    -17.05602351	      3.60225319	     -8.70386188	      5.85672269	      8.72434127	     -4.95450541	     -2.64615531
      5.09500000	    -10.47194253	      3.58259461	      0.57057995	     -0.75097480	     -0.00696784	     -0.75547406	     28.14784646	     -6.87037945	     -3.76850294	    -67.67752653	    -12.92894800	    -17.05982151	      8.26473282	     18.25744375	      7.27985242	    -11.82551289	    -16.47701294	      3.71484329	     -8.56606726	      5.71938767	      8.49932993	     -4.84740683	     -2.89490775
      5.10000000	    -10.34208708	      3.49650005	      0.71448490	     -0.74529121	     -0.00599979	     -0.75624922	     28.61431929	     -6.78091953	     -3.86945555	    -67.37265014	    -12.38481597	    -17.25661683	      8.29123719	     17.42275739	      7.33199582	    -11.67103589	    -15.90323276	      3.83383894	     -8.39042473	      5.63255718	      8.34091953	     -4.73661546	     -3.06825591
      5.10500000	    -10.21212552	      3.40368933	      0.86956276	     -0.73959852	     -0.00507408	     -0.75703571	     29.05149389	     -6.69277269	     -3.98719872	    -66.98810426	    -11.85007847	    -17.44557729	      8.28629044	     16.59146900	      7.37104415	    -11.53467795	    -15.33567497	      3.95902684	     -8.18056361	      5.59293054	      8.18468565	     -4.61886917	     -3.25617896
      5.11000000	    -10.07323632	      3.30700100	      1.02853255	     -0.73391243	     -0.00417981	     -0.75781308	     29.45112994	     -6.60353677	     -4.11558620	    -66.52120426	    -11.32536467	    -17.64895318	      8.23846576	     15.75340695	      7.39772761	    -11.40856460	    -14.77175786	      4.08007656	     -7.94556579	      5.59040590	      8.01965066	     -4.49633829	     -3.44640552
      5.11500000	     -9.93780405	      3.21101394	      1.19574334	     -0.72823930	     -0.00335579	     -0.75860742	     29.83106603	     -6.52623732	     -4.26060234	    -65.98383480	    -10.80054637	    -17.85355830	      8.15149789	     14.92570722	      7.42097617	    -11.28459819	    -14.21755377	      4.21639066	     -7.69675886	      5.62447840	      7.85611134	     -4.36858780	     -3.64288184
      5.12000000	     -9.79440946	      3.09972755	      1.36429109	     -0.72256562	     -0.00254153	     -0.75937043	     30.16562337	     -6.42899462	     -4.41230353	    -65.35204467	    -10.26456943	    -18.05444631	      7.98889685	     14.09566106	      7.41668190	    -11.17505279	    -13.67301467	      4.32622364	     -7.42603725	      5.68028227	      7.68609790	     -4.23248724	     -3.84573557
      5.12500000	     -9.66088355	      2.99001164	      1.54337840	     -0.71692982	     -0.00181401	     -0.76015199	     30.48894383	     -6.34785489	     -4.58521201	    -64.65288256	     -9.71538853	    -18.24516337	      7.75409403	     13.28806552	      7.41063528	    -11.06571498	    -13.14458269	      4.45237026	     -7.14935202	      5.76115362	      7.52308550	     -4.09488034	     -4.06185764
      5.13000000	     -9.53570242	      2.87584767	      1.72874196	     -0.71131308	     -0.00115221	     -0.76092655	     30.79330189	     -6.26682196	     -4.76883392	    -63.87790378	     -9.15776916	    -18.42599893	      7.42685385	     12.50113608	      7.39318219	    -10.95877393	    -12.63380093	      4.57718145	     -6.86619820	      5.85626390	      7.36659769	     -3.94878883	     -4.28234812
      5.13500000	     -9.42213218	      2.76006795	      1.92073667	     -0.70572712	     -0.00056908	     -0.76170517	     31.08440091	     -6.19316975	     -4.96829788	    -63.02960790	     -8.59754754	    -18.59596322	      6.99959437	     11.73921743	      7.36869257	    -10.85436506	    -12.14075314	      4.70564902	     -6.57733402	      5.96144355	      7.22076426	     -3.80054787	     -4.51233768
      5.14000000	     -9.32744666	      2.64102840	      2.12424767	     -0.70017521	     -0.00007784	     -0.76247490	     31.37038247	     -6.12708213	     -5.18800148	    -62.10970460	     -8.04763386	    -18.75888507	      6.52159218	     11.01253383	      7.33580535	    -10.73990385	    -11.67114713	      4.84621280	     -6.28901140	      6.06642843	      7.09138753	     -3.65764342	     -4.75364182
      5.14500000	     -9.24674729	      2.52523440	      2.33121822	     -0.69464806	      0.00032729	     -0.76324682	     31.64611105	     -6.07057606	     -5.41386405	    -61.11657515	     -7.52367774	    -18.92452789	      5.99296227	     10.31370346	      7.30121207	    -10.63002415	    -11.22105721	      4.99098683	     -6.00338078	      6.16937481	      6.97610158	     -3.51286810	     -4.99763372
